<svg width="100" height="100" viewBox="0 0 100 100" fill="currentColor" xmlns="http://www.w3.org/2000/svg">
<path d="M24.9023 50.8789L35.3516 63.6719H25.8789C25.3581 63.6068 24.8535 63.4603 24.3652 63.2324C23.877 63.0046 23.4701 62.6953 23.1445 62.3047L13.7695 50.8789H24.9023ZM48.8281 63.6719L38.4766 50.8789H27.2461L37.6953 63.6719H48.8281ZM64.7461 63.6719H74.0234C74.2839 63.6068 74.4954 63.4928 74.6582 63.3301C74.821 63.1673 74.8698 62.9557 74.8047 62.6953C74.8047 62.6302 74.7884 62.5488 74.7559 62.4512C74.7233 62.3535 74.6745 62.2721 74.6094 62.207L65.4297 50.8789H54.2969L64.7461 63.6719ZM62.4023 63.6719L51.9531 50.8789H40.8203L51.2695 63.6719H62.4023ZM12.3047 49.1211H23.4375L13.0859 36.3281H3.71094C3.45052 36.3932 3.23893 36.5072 3.07617 36.6699C2.91341 36.8327 2.83203 37.0443 2.83203 37.3047C2.83203 37.3698 2.84831 37.4512 2.88086 37.5488C2.91341 37.6465 2.96224 37.7279 3.02734 37.793L12.3047 49.1211ZM37.0117 49.1211L26.5625 36.3281H15.332L25.7812 49.1211H37.0117ZM50.4883 49.1211L40.0391 36.3281H28.9062L39.2578 49.1211H50.4883ZM63.9648 49.1211L54.5898 37.6953C54.2643 37.2396 53.8411 36.8978 53.3203 36.6699C52.7995 36.4421 52.2461 36.3281 51.6602 36.3281H42.3828L52.832 49.1211H63.9648ZM71.1914 70.9961V65.625H69.3359V70.9961H51.5625V65.625H49.8047V70.9961H30.2734V65.625H28.5156V70.9961H7.12891V45.8984L5.37109 43.6523V70.9961H0V72.7539H81.8359V70.9961H71.1914Z" fill="#C31E20"/>
</svg>
